<?xml version="1.0" encoding="UTF-8"?><svg id="Capa_2" xmlns="http://www.w3.org/2000/svg" viewBox="0 0 225.08 196.1"><defs><style>.cls-1{fill:#fee4bf;}.cls-2{fill:#ac232d;}</style></defs><path class="cls-1" d="M47.47,68.75c1.01-5.33-.29-8.92-6.62-8.92s-8.92,3.6-9.79,8.92l-2.16,12.38c-.58,3.17-2.73,5.04-5.9,5.04h-7.34c-3.17,0-4.61-1.87-4.03-5.04l2.16-12.38c2.59-14.97,11.23-22.31,29.36-22.31s24.32,7.34,21.59,22.31l-1.15,6.62c-1.3,7.2-3.17,13.96-8.92,20.87l-32.38,39.58h25.76c3.17,0,4.61,1.73,4.03,4.89l-1.01,5.61c-.58,3.17-2.59,5.04-5.76,5.04H4.29c-3.17,0-4.75-1.87-4.17-5.04l1.15-6.62c.29-2.02.58-2.88,2.16-4.75l37.13-46.34c3.02-3.74,4.61-6.91,5.47-11.66l1.44-8.2Z"/><path class="cls-1" d="M94.53,115.96h7.05c3.17,0,4.75,1.73,4.17,4.89l-1.01,5.76c-.58,3.17-2.73,4.89-5.9,4.89h-7.05l-2.59,14.82c-.58,3.17-2.59,5.04-5.76,5.04h-7.2c-3.17,0-4.75-1.87-4.17-5.04l2.59-14.82h-24.47c-3.17,0-4.61-1.73-4.03-4.89l1.01-6.48c.43-1.58.86-3.17,1.87-5.18l29.65-64.33c1.01-2.16,2.88-3.45,5.47-3.45h8.35c4.75,0,4.61,4.32,3.31,6.91l-29.5,61.89h11.08l3.6-19.86c.58-3.17,2.59-4.89,5.76-4.89h7.2c3.17,0,4.75,1.73,4.17,4.89l-3.6,19.86Z"/><path class="cls-2" d="M182.51,147.91c-1.01,2.16-2.73,3.45-5.33,3.45h-8.06c-4.89,0-4.75-4.32-3.45-7.05l39.43-81.46h-28.06c-3.17,0-4.61-1.73-4.17-4.89l1.01-5.9c.58-3.17,2.73-4.89,5.9-4.89h41.02c3.17,0,4.75,1.73,4.17,4.89l-1.15,6.48c-.29,1.73-.86,3.31-1.73,5.18l-39.58,84.19Z"/><path class="cls-2" d="M162.37,4.72C163.66,1.64,166.23,0,169.17,0h6.25c5.88,0,5.88,5.54,4.41,9.44l-71.86,181.94c-1.29,3.08-3.86,4.72-6.8,4.72h-6.25c-5.7,0-5.88-5.54-4.23-9.44L162.37,4.72Z"/></svg>