<?xml version="1.0" encoding="UTF-8"?><svg id="Capa_1" xmlns="http://www.w3.org/2000/svg" viewBox="0 0 774.69 641.18"><path d="M8.36,6.01h68.78c34.39,0,75.66,18.91,75.66,77.38,0,34.39-15.47,61.04-49.86,68.35v.86c38.26,9.03,55.88,35.68,55.88,74.37,0,55.88-37.83,85.11-79.1,85.11H8.36V6.01ZM64.24,131.54c27.94,0,35.25-12.9,35.25-40.41,0-34.82-7.31-40.84-35.25-40.41v80.82ZM64.24,267.38c33.53,0,38.69-13.33,38.69-45.14,0-27.94-6.88-43.85-38.69-43.42v88.55Z" style="fill:#616160;"/><path d="M356.12,312.08c-24.93,0-43.42-7.31-58.46-24.93-13.76,18.48-35.25,30.95-58.89,30.95-46,0-67.06-41.27-67.06-75.23,0-36.11,18.48-67.06,46-97.58-13.33-28.37-24.07-50.72-24.07-82.1C193.63,24.93,219.42,0,256.82,0s58.46,30.95,58.46,61.9c0,39.55-18.48,54.16-42.99,82.96,6.88,19.34,18.05,36.54,27.51,54.59,5.16-15.91,8.6-32.67,10.75-49.44l36.97,8.17c-3.87,29.66-11.18,59.75-23.64,85.97,6.88,11.61,16.76,20.2,32.24,23.21v44.71ZM237.05,188.28c-9.89,10.32-15.47,21.92-15.47,37.83,0,18.05,9.03,44.71,30.95,44.71,9.46,0,15.91-8.6,21.06-15.48l-36.54-67.06ZM253.38,109.18c9.46-12.47,19.77-25.36,19.77-43.42,0-13.33-4.3-24.5-16.76-24.5-11.61,0-15.48,10.75-15.48,21.92,0,14.62,6.88,33.1,12.47,46Z" style="fill:#616160;"/><path d="M374.17,6.01h68.78c34.39,0,75.66,18.91,75.66,77.38,0,34.39-15.48,61.04-49.87,68.35v.86c38.26,9.03,55.88,35.68,55.88,74.37,0,55.88-37.83,85.11-79.1,85.11h-71.36V6.01ZM430.05,131.54c27.94,0,35.25-12.9,35.25-40.41,0-34.82-7.31-40.84-35.25-40.41v80.82ZM430.05,267.38c33.53,0,38.69-13.33,38.69-45.14,0-27.94-6.88-43.85-38.69-43.42v88.55Z" style="fill:#616160;"/><path d="M0,6.01h68.78c34.39,0,75.66,18.91,75.66,77.38,0,34.39-15.47,61.04-49.86,68.35v.86c38.26,9.03,55.88,35.68,55.88,74.37,0,55.88-37.83,85.11-79.1,85.11H0V6.01ZM55.88,131.54c27.94,0,35.25-12.9,35.25-40.41,0-34.82-7.31-40.84-35.25-40.41v80.82ZM55.88,267.38c33.53,0,38.69-13.33,38.69-45.14,0-27.94-6.88-43.85-38.69-43.42v88.55Z" style="fill:#fefafc;"/><path d="M347.76,312.08c-24.93,0-43.42-7.31-58.46-24.93-13.76,18.48-35.25,30.95-58.89,30.95-46,0-67.06-41.27-67.06-75.23,0-36.11,18.48-67.06,46-97.58-13.33-28.37-24.07-50.72-24.07-82.1C185.27,24.93,211.06,0,248.46,0s58.46,30.95,58.46,61.9c0,39.55-18.48,54.16-42.99,82.96,6.88,19.34,18.05,36.54,27.51,54.59,5.16-15.91,8.6-32.67,10.75-49.44l36.97,8.17c-3.87,29.66-11.18,59.75-23.64,85.97,6.88,11.61,16.76,20.2,32.24,23.21v44.71ZM228.69,188.28c-9.89,10.32-15.47,21.92-15.47,37.83,0,18.05,9.03,44.71,30.95,44.71,9.46,0,15.91-8.6,21.06-15.48l-36.54-67.06ZM245.02,109.18c9.46-12.47,19.77-25.36,19.77-43.42,0-13.33-4.3-24.5-16.76-24.5-11.61,0-15.48,10.75-15.48,21.92,0,14.62,6.88,33.1,12.47,46Z" style="fill:#fefafc;"/><path d="M365.81,6.01h68.78c34.39,0,75.66,18.91,75.66,77.38,0,34.39-15.48,61.04-49.87,68.35v.86c38.26,9.03,55.88,35.68,55.88,74.37,0,55.88-37.83,85.11-79.1,85.11h-71.36V6.01ZM421.69,131.54c27.94,0,35.25-12.9,35.25-40.41,0-34.82-7.31-40.84-35.25-40.41v80.82ZM421.69,267.38c33.53,0,38.69-13.33,38.69-45.14,0-27.94-6.88-43.85-38.69-43.42v88.55Z" style="fill:#fefafc;"/><path d="M8.68,329.09h55.88v128.1h.86l46.43-128.1h49.86l-41.7,102.74,50.29,203.33h-53.73l-30.95-137.13h-.86l-20.2,48.15v88.98H8.68v-306.07Z" style="fill:#616160;"/><path d="M189.65,329.09h55.88v306.07h-55.88v-306.07Z" style="fill:#616160;"/><path d="M373.2,440c0-50.72-6.45-69.64-20.2-69.64-11.61,0-23.21,7.74-23.21,111.77s6.02,111.77,23.21,111.77c18.48,0,22.78-28.37,23.64-72.65l47.29,2.15c0,53.3-7.74,117.79-73.08,117.79-59.75,0-79.53-58.46-79.53-159.05,0-116.92,35.25-159.05,79.53-159.05,64.48,0,72.22,59.32,72.22,115.21l-49.86,1.72Z" style="fill:#616160;"/><path d="M454.44,329.09h55.88v128.1h.86l46.43-128.1h49.87l-41.7,102.74,50.29,203.33h-53.73l-30.95-137.13h-.86l-20.2,48.15v88.98h-55.88v-306.07Z" style="fill:#616160;"/><path d="M675.82,546.6c0,17.2,0,47.29,24.07,47.29,18.48,0,24.93-17.2,24.93-29.66,0-54.59-101.45-67.06-101.45-157.76,0-46,24.93-83.39,72.22-83.39,50.29,0,69.64,38.26,70.93,93.28h-49.87c0-17.19,0-46-22.35-46-13.33,0-21.06,11.18-21.06,27.94,0,52.01,101.45,69.64,101.45,158.62,0,46.86-26.65,84.25-76.95,84.25-59.75,0-71.79-52.44-71.79-94.57h49.87Z" style="fill:#616160;"/><path d="M.15,329.09h55.88v128.1h.86l46.43-128.1h49.87l-41.7,102.74,50.29,203.33h-53.73l-30.95-137.13h-.86l-20.2,48.15v88.98H.15v-306.07Z" style="fill:#fefafc;"/><path d="M181.13,329.09h55.88v306.07h-55.88v-306.07Z" style="fill:#fefafc;"/><path d="M364.68,440c0-50.72-6.45-69.64-20.2-69.64-11.61,0-23.21,7.74-23.21,111.77s6.02,111.77,23.21,111.77c18.48,0,22.78-28.37,23.64-72.65l47.29,2.15c0,53.3-7.74,117.79-73.08,117.79-59.75,0-79.53-58.46-79.53-159.05,0-116.92,35.25-159.05,79.53-159.05,64.48,0,72.22,59.32,72.22,115.21l-49.86,1.72Z" style="fill:#fefafc;"/><path d="M445.92,329.09h55.88v128.1h.86l46.43-128.1h49.87l-41.7,102.74,50.29,203.33h-53.73l-30.95-137.13h-.86l-20.2,48.15v88.98h-55.88v-306.07Z" style="fill:#fefafc;"/><path d="M667.3,546.6c0,17.2,0,47.29,24.07,47.29,18.48,0,24.93-17.2,24.93-29.66,0-54.59-101.45-67.06-101.45-157.76,0-46,24.93-83.39,72.22-83.39,50.29,0,69.64,38.26,70.93,93.28h-49.87c0-17.2,0-46-22.35-46-13.33,0-21.06,11.18-21.06,27.94,0,52.01,101.45,69.64,101.45,158.62,0,46.86-26.65,84.25-76.95,84.25-59.75,0-71.79-52.44-71.79-94.57h49.87Z" style="fill:#fefafc;"/><path d="M673.84,0c24.18.77,48.06,13.7,64.61,30.96,16.72,17.44,27.54,40.77,27.72,64.89v12.94c.38,33.46-19.49,63.66-46.39,82.45,8.24,13.75,12.43,29.74,16.41,45.15,6.69,13.78,9.85,31.51-4.33,41.74.1,8.78-.08,16.89-6.6,23.53-9.9,10.09-21.95,9.86-35.37,9.11-10.78-.6-20.28-3.26-27.27-12-10.86,12.54-26.84,13.01-42.4,11.87-7.82-.57-14.9-2.83-19.98-7.91-3.01-3-4.53-6.37-5.22-7.87-3.22-7-3.08-13.48-2.76-16.84-12.83-11.77-10.35-27.84-3.2-42.18,3.25-15.86,9.48-31.26,15.99-45.59-9.05-6.02-23.65-17.59-33.92-36.82-19.09-35.75-16.49-85.35,13-118.9C609.54,5.6,644.08.96,653.84,0h19.99Z" style="fill:#010101;"/><path d="M623.52,42.32c-17.86.4-32.68,12.87-39.79,27.87-2.02,4.26-3.33,7.82-3.78,12.29-1.49,14.96.21,24.59,8.93,37.12,4.1,5.89,10.35,9.83,15.82,14.23-3.2,15.49-2.89,29.3,4.03,44.71-8.01-5.89-14.74-12.47-20.19-19.75-35.07-46.79-18.73-113.66,33.61-139.18,14.27-6.96,29.41-10.12,45.82-9.28,42.84,2.2,78.81,33.88,86.31,76.29,6.25,35.37-8.02,71.38-37.93,92.32,1.59-5.34,3.68-9.57,4.74-14.67,2.11-10.17,1.45-20.44-1.05-30.73,11.36-6.83,19.71-16.56,23.48-29.1,8.61-28.68-10.86-60.14-41.63-61.94-26.03-1.52-51.77-.78-78.37-.19Z" style="fill:#79280f;"/><path d="M707.18,172.45c-10.81,23.41-38.35,34.52-62.24,25.2-11.81-4.61-21.3-13.63-27.18-25.1l89.42-.1Z" style="fill:#f49619;"/><path d="M697.5,116.91c12.63,12.6,16.22,27.17,13.41,45.3l-78.61-.1-18.18-.49c-6.21-29.52,15.65-57.88,45.53-59.42,15.29-.79,27.28,4.16,37.86,14.71Z" style="fill:#f49619;"/><path d="M670.79,127.4l-19.42.05c-2.16,0-3.23-3.15-3.31-4.84-.09-1.96,1.26-4.55,3.68-4.71,7.26-.5,14.51-.49,21.82.13,2.79.23,3.38,3.7,3.08,5.59-.46,2.93-2.79,3.78-5.86,3.78Z" style="fill:#010101;"/><path d="M716.9,125.33c-12.95-23.7-38.13-35.75-64.58-30.88-12.23,2.25-23.2,8.64-31.89,17.28-4.17,4.14-6.67,8.81-10.05,13.74-13.34-8.67-21.13-22.28-19.1-38.11s12.74-27.61,27.24-32.04c3.75-1.15,7.26-1.27,11.25-1.26l71.65.14c4.88,0,8.84,1.24,13.03,3.37,10.41,5.3,18.46,14.44,20.96,26.06,3.63,16.88-4.01,32.97-18.52,41.7Z" style="fill:#f49619;"/><path d="M710.43,98.77c-3.78,1.81-8.08-.04-10.33-3.32-4.25-6.18-4.29-14.38-.42-20.73,1.75-2.88,4.41-4.38,7.43-4.48,3.29-.11,6.01,1.61,7.87,4.43,4.18,6.34,4.21,19.92-4.55,24.11Z" style="fill:#010101;"/><path d="M627.02,95.59c-2.82,4.13-8.02,5.11-11.67,2.41-7.69-5.68-6.84-19.03-2.03-24.46,1.89-2.14,4.41-3.56,7.21-3.36,2.64.19,5.31,1.78,7.02,4.45,3.92,6.15,3.73,14.71-.53,20.96Z" style="fill:#010101;"/><path d="M673.89,266.48c-2.32-1.71-3.42-4.23-4.87-6.52-2.03-3.22-6.08-5.42-9.66-3.31s-5.53,9.41-10.71,10.98c-5.57,1.69-11.62.99-16.67-1.69-1.69-.9-2.32-2.37-2.26-4.23.19-6.22-1.31-12.03-4.63-17.27l-.16-28.63c-.02-3.23.39-6.77-.86-9.75s-6.48-3.16-8.19-.71c-1.26,1.81-1.3,4.2-1.32,6.32l-.24,27.98c-4.62.17-9.03-.3-13.36-2.39,2.42-14.57,7.59-28.29,15-41.39,18.76,6.62,24.25,15.41,46.11,15.29,23.15-.13,26.52-8.03,47.33-15.04,6.72,12.36,11.55,25.34,14.42,39.02,1,4.76-9.67,4.26-12.9,4.62l-.36-29.95c-.04-3.45-1.89-6.12-5.25-5.99-3.14.12-5.34,2.31-5.38,5.77l-.39,31.5c-.04,3.02-.56,5.9-2.09,8.42-2.67,4.41-1.13,9.82-2.65,14.52-1.76,4.61-16.68,5.57-20.93,2.45Z" style="fill:#79280f;"/><path d="M657.4,287.58c-6.73,8.83-16.62,13.13-27.66,13.11-6.9-.02-13.43-.64-19.18-4.61-4.67-3.23-7.04-8.54-5.89-14.41,7.78.89,15.06-1.24,20.23-7.45,12.12,6,19.94,6.44,32.14,1.58.62,4.14.2,7.86.36,11.79Z" style="fill:#f49619;"/><path d="M720.57,283.04c1.21,9.14-7.04,15.35-15.62,16.88-13.24,2.36-28.99-.18-36.55-12.09-1.49-3.46.19-8.12-.4-12.03,10.91,4.9,21.76,4.01,32.2-1.5,4.51,5.12,10.01,7.74,16.56,7.57,1.04-.03,3.37.25,3.82,1.16Z" style="fill:#f49619;"/><path d="M713.08,270.98c-8.03-2.76-9.17-13.35-4.56-20.49,6.98-.01,13.17-1.18,19.96-2.98,1.72,4.06,2.66,8.26,1.97,12.51-1.31,8.15-9.21,13.76-17.37,10.95Z" style="fill:#f49619;"/><path d="M618.99,257.16c1.19,5.26-1.18,11.6-6.55,13.69-7.79,3.03-16.54-2.28-17.75-10.37-.67-4.46.15-8.55,1.89-12.87,6.73,1.76,13.15,2.75,20.11,2.92,1.01,2.3,1.76,4.19,2.31,6.63Z" style="fill:#f49619;"/></svg>