<?xml version="1.0" encoding="UTF-8"?><svg id="Capa_1" xmlns="http://www.w3.org/2000/svg" viewBox="0 0 367.92 367.92"><circle cx="196.09" cy="167.61" r="348.19" style="fill:#010101;"/><path d="M50.1,72.85h24.29c12.15,0,26.72,6.68,26.72,27.33,0,12.15-5.47,21.56-17.61,24.14v.3c13.51,3.19,19.74,12.6,19.74,26.27,0,19.74-13.36,30.06-27.94,30.06h-25.2v-108.1ZM69.84,117.19c9.87,0,12.45-4.55,12.45-14.27,0-12.3-2.58-14.42-12.45-14.27v28.54ZM69.84,165.16c11.84,0,13.66-4.71,13.66-15.94,0-9.87-2.43-15.49-13.66-15.33v31.28Z" style="fill:#616160;"/><path d="M172.93,180.95c-8.81,0-15.33-2.58-20.65-8.81-4.86,6.53-12.45,10.93-20.8,10.93-16.25,0-23.68-14.58-23.68-26.57,0-12.75,6.53-23.68,16.25-34.46-4.71-10.02-8.5-17.92-8.5-29,0-13.51,9.11-22.32,22.32-22.32s20.65,10.93,20.65,21.86c0,13.97-6.53,19.13-15.18,29.3,2.43,6.83,6.38,12.91,9.72,19.28,1.82-5.62,3.04-11.54,3.8-17.46l13.06,2.88c-1.37,10.48-3.95,21.1-8.35,30.37,2.43,4.1,5.92,7.14,11.39,8.2v15.79ZM130.87,137.23c-3.49,3.64-5.47,7.74-5.47,13.36,0,6.38,3.19,15.79,10.93,15.79,3.34,0,5.62-3.04,7.44-5.47l-12.91-23.68ZM136.64,109.29c3.34-4.4,6.98-8.96,6.98-15.33,0-4.71-1.52-8.65-5.92-8.65-4.1,0-5.47,3.8-5.47,7.74,0,5.16,2.43,11.69,4.4,16.25Z" style="fill:#616160;"/><path d="M179.3,72.85h24.29c12.15,0,26.72,6.68,26.72,27.33,0,12.15-5.47,21.56-17.61,24.14v.3c13.51,3.19,19.74,12.6,19.74,26.27,0,19.74-13.36,30.06-27.94,30.06h-25.2v-108.1ZM199.04,117.19c9.87,0,12.45-4.55,12.45-14.27,0-12.3-2.58-14.42-12.45-14.27v28.54ZM199.04,165.16c11.84,0,13.66-4.71,13.66-15.94,0-9.87-2.43-15.49-13.66-15.33v31.28Z" style="fill:#616160;"/><path d="M47.15,72.85h24.29c12.15,0,26.72,6.68,26.72,27.33,0,12.15-5.47,21.56-17.61,24.14v.3c13.51,3.19,19.74,12.6,19.74,26.27,0,19.74-13.36,30.06-27.94,30.06h-25.2v-108.1ZM66.89,117.19c9.87,0,12.45-4.55,12.45-14.27,0-12.3-2.58-14.42-12.45-14.27v28.54ZM66.89,165.16c11.84,0,13.66-4.71,13.66-15.94,0-9.87-2.43-15.49-13.66-15.33v31.28Z" style="fill:#fefafc;"/><path d="M169.98,180.95c-8.81,0-15.33-2.58-20.65-8.81-4.86,6.53-12.45,10.93-20.8,10.93-16.25,0-23.68-14.58-23.68-26.57,0-12.75,6.53-23.68,16.25-34.46-4.71-10.02-8.5-17.92-8.5-29,0-13.51,9.11-22.32,22.32-22.32s20.65,10.93,20.65,21.86c0,13.97-6.53,19.13-15.18,29.3,2.43,6.83,6.38,12.91,9.72,19.28,1.82-5.62,3.04-11.54,3.8-17.46l13.06,2.88c-1.37,10.48-3.95,21.1-8.35,30.37,2.43,4.1,5.92,7.14,11.39,8.2v15.79ZM127.92,137.23c-3.49,3.64-5.47,7.74-5.47,13.36,0,6.38,3.19,15.79,10.93,15.79,3.34,0,5.62-3.04,7.44-5.47l-12.91-23.68ZM133.69,109.29c3.34-4.4,6.98-8.96,6.98-15.33,0-4.71-1.52-8.65-5.92-8.65-4.1,0-5.47,3.8-5.47,7.74,0,5.16,2.43,11.69,4.4,16.25Z" style="fill:#fefafc;"/><path d="M176.35,72.85h24.29c12.15,0,26.72,6.68,26.72,27.33,0,12.15-5.47,21.56-17.61,24.14v.3c13.51,3.19,19.74,12.6,19.74,26.27,0,19.74-13.36,30.06-27.94,30.06h-25.2v-108.1ZM196.09,117.19c9.87,0,12.45-4.55,12.45-14.27,0-12.3-2.58-14.42-12.45-14.27v28.54ZM196.09,165.16c11.84,0,13.66-4.71,13.66-15.94,0-9.87-2.43-15.49-13.66-15.33v31.28Z" style="fill:#fefafc;"/><path d="M50.22,186.96h19.74v45.24h.3l16.4-45.24h17.61l-14.73,36.29,17.76,71.81h-18.98l-10.93-48.43h-.3l-7.14,17v31.43h-19.74v-108.1Z" style="fill:#616160;"/><path d="M114.13,186.96h19.74v108.1h-19.74v-108.1Z" style="fill:#616160;"/><path d="M178.96,226.13c0-17.92-2.28-24.6-7.14-24.6-4.1,0-8.2,2.73-8.2,39.47s2.13,39.47,8.2,39.47c6.53,0,8.05-10.02,8.35-25.66l16.7.76c0,18.83-2.73,41.6-25.81,41.6-21.1,0-28.09-20.65-28.09-56.18,0-41.3,12.45-56.18,28.09-56.18,22.77,0,25.51,20.95,25.51,40.69l-17.61.61Z" style="fill:#616160;"/><path d="M207.66,186.96h19.74v45.24h.3l16.4-45.24h17.61l-14.73,36.29,17.76,71.81h-18.98l-10.93-48.43h-.3l-7.14,17v31.43h-19.74v-108.1Z" style="fill:#616160;"/><path d="M285.85,263.78c0,6.07,0,16.7,8.5,16.7,6.53,0,8.81-6.07,8.81-10.48,0-19.28-35.83-23.68-35.83-55.72,0-16.25,8.81-29.45,25.51-29.45,17.76,0,24.6,13.51,25.05,32.95h-17.61c0-6.07,0-16.25-7.89-16.25-4.71,0-7.44,3.95-7.44,9.87,0,18.37,35.83,24.6,35.83,56.02,0,16.55-9.41,29.76-27.18,29.76-21.1,0-25.35-18.52-25.35-33.4h17.61Z" style="fill:#616160;"/><path d="M47.2,186.96h19.74v45.24h.3l16.4-45.24h17.61l-14.73,36.29,17.76,71.81h-18.98l-10.93-48.43h-.3l-7.14,17v31.43h-19.74v-108.1Z" style="fill:#fefafc;"/><path d="M111.12,186.96h19.74v108.1h-19.74v-108.1Z" style="fill:#fefafc;"/><path d="M175.95,226.13c0-17.92-2.28-24.6-7.14-24.6-4.1,0-8.2,2.73-8.2,39.47s2.13,39.47,8.2,39.47c6.53,0,8.05-10.02,8.35-25.66l16.7.76c0,18.83-2.73,41.6-25.81,41.6-21.1,0-28.09-20.65-28.09-56.18,0-41.3,12.45-56.18,28.09-56.18,22.77,0,25.51,20.95,25.51,40.69l-17.61.61Z" style="fill:#fefafc;"/><path d="M204.65,186.96h19.74v45.24h.3l16.4-45.24h17.61l-14.73,36.29,17.76,71.81h-18.98l-10.93-48.43h-.3l-7.14,17v31.43h-19.74v-108.1Z" style="fill:#fefafc;"/><path d="M282.83,263.78c0,6.07,0,16.7,8.5,16.7,6.53,0,8.81-6.07,8.81-10.48,0-19.28-35.83-23.68-35.83-55.72,0-16.25,8.81-29.45,25.51-29.45,17.76,0,24.6,13.51,25.05,32.95h-17.61c0-6.07,0-16.25-7.89-16.25-4.71,0-7.44,3.95-7.44,9.87,0,18.37,35.83,24.6,35.83,56.02,0,16.55-9.41,29.76-27.18,29.76-21.1,0-25.35-18.52-25.35-33.4h17.61Z" style="fill:#fefafc;"/><path d="M285.14,70.73c8.54.27,16.97,4.84,22.82,10.94,5.91,6.16,9.73,14.4,9.79,22.92v4.57c.13,11.82-6.88,22.48-16.39,29.12,2.91,4.86,4.39,10.51,5.8,15.95,2.36,4.87,3.48,11.13-1.53,14.74.03,3.1-.03,5.97-2.33,8.31-3.5,3.56-7.75,3.48-12.49,3.22-3.81-.21-7.16-1.15-9.63-4.24-3.84,4.43-9.48,4.59-14.97,4.19-2.76-.2-5.26-1-7.06-2.8-1.06-1.06-1.6-2.25-1.85-2.78-1.14-2.47-1.09-4.76-.98-5.95-4.53-4.16-3.66-9.83-1.13-14.9,1.15-5.6,3.35-11.04,5.65-16.1-3.2-2.13-8.35-6.21-11.98-13.01-6.74-12.62-5.82-30.14,4.59-42,8.98-10.22,21.18-11.85,24.63-12.19h7.06Z" style="fill:#010101;"/><path d="M267.37,85.68c-6.31.14-11.54,4.55-14.05,9.84-.71,1.5-1.18,2.76-1.33,4.34-.53,5.28.07,8.69,3.15,13.11,1.45,2.08,3.66,3.47,5.59,5.02-1.13,5.47-1.02,10.35,1.42,15.79-2.83-2.08-5.21-4.41-7.13-6.97-12.39-16.53-6.62-40.14,11.87-49.16,5.04-2.46,10.39-3.57,16.18-3.28,15.13.78,27.84,11.97,30.48,26.94,2.21,12.49-2.83,25.21-13.4,32.61.56-1.89,1.3-3.38,1.68-5.18.75-3.59.51-7.22-.37-10.86,4.01-2.41,6.96-5.85,8.29-10.28,3.04-10.13-3.84-21.24-14.7-21.88-9.19-.54-18.28-.28-27.68-.07Z" style="fill:#79280f;"/><path d="M296.92,131.64c-3.82,8.27-13.55,12.19-21.98,8.9-4.17-1.63-7.52-4.81-9.6-8.87l31.58-.03Z" style="fill:#f49619;"/><path d="M293.5,112.02c4.46,4.45,5.73,9.6,4.73,16l-27.76-.03-6.42-.17c-2.19-10.43,5.53-20.44,16.08-20.99,5.4-.28,9.64,1.47,13.37,5.19Z" style="fill:#f49619;"/><path d="M284.07,115.73l-6.86.02c-.76,0-1.14-1.11-1.17-1.71-.03-.69.44-1.61,1.3-1.66,2.56-.18,5.13-.17,7.71.05.99.08,1.2,1.31,1.09,1.98-.16,1.04-.98,1.33-2.07,1.34Z" style="fill:#010101;"/><path d="M300.35,115c-4.57-8.37-13.47-12.63-22.81-10.91-4.32.8-8.19,3.05-11.26,6.1-1.47,1.46-2.36,3.11-3.55,4.85-4.71-3.06-7.46-7.87-6.75-13.46s4.5-9.75,9.62-11.32c1.32-.4,2.57-.45,3.97-.45l25.31.05c1.72,0,3.12.44,4.6,1.19,3.68,1.87,6.52,5.1,7.4,9.21,1.28,5.96-1.42,11.64-6.54,14.73Z" style="fill:#f49619;"/><path d="M298.07,105.61c-1.34.64-2.85-.02-3.65-1.17-1.5-2.18-1.51-5.08-.15-7.32.62-1.02,1.56-1.55,2.62-1.58,1.16-.04,2.12.57,2.78,1.56,1.48,2.24,1.49,7.04-1.61,8.51Z" style="fill:#010101;"/><path d="M268.61,104.49c-1,1.46-2.83,1.8-4.12.85-2.72-2.01-2.42-6.72-.72-8.64.67-.75,1.56-1.26,2.55-1.19.93.07,1.88.63,2.48,1.57,1.38,2.17,1.32,5.2-.19,7.4Z" style="fill:#010101;"/><path d="M285.16,164.85c-.82-.6-1.21-1.5-1.72-2.3-.72-1.14-2.15-1.92-3.41-1.17s-1.95,3.32-3.78,3.88c-1.97.6-4.1.35-5.89-.6-.6-.32-.82-.84-.8-1.49.07-2.2-.46-4.25-1.63-6.1l-.06-10.11c0-1.14.14-2.39-.3-3.44s-2.29-1.12-2.89-.25c-.45.64-.46,1.48-.46,2.23l-.08,9.88c-1.63.06-3.19-.1-4.72-.84.86-5.15,2.68-9.99,5.3-14.62,6.63,2.34,8.56,5.44,16.29,5.4,8.18-.04,9.37-2.83,16.72-5.31,2.37,4.37,4.08,8.95,5.09,13.78.35,1.68-3.41,1.51-4.55,1.63l-.13-10.58c-.01-1.22-.67-2.16-1.85-2.12-1.11.04-1.89.81-1.9,2.04l-.14,11.12c-.01,1.07-.2,2.08-.74,2.97-.94,1.56-.4,3.47-.94,5.13-.62,1.63-5.89,1.97-7.39.87Z" style="fill:#79280f;"/><path d="M279.34,172.3c-2.38,3.12-5.87,4.64-9.77,4.63-2.44,0-4.74-.22-6.77-1.63-1.65-1.14-2.49-3.02-2.08-5.09,2.75.31,5.32-.44,7.15-2.63,4.28,2.12,7.04,2.27,11.35.56.22,1.46.07,2.78.13,4.16Z" style="fill:#f49619;"/><path d="M301.65,170.7c.43,3.23-2.49,5.42-5.52,5.96-4.68.83-10.24-.06-12.91-4.27-.53-1.22.07-2.87-.14-4.25,3.85,1.73,7.69,1.42,11.37-.53,1.59,1.81,3.54,2.73,5.85,2.68.37,0,1.19.09,1.35.41Z" style="fill:#f49619;"/><path d="M299,166.44c-2.84-.98-3.24-4.72-1.61-7.24,2.47,0,4.65-.42,7.05-1.05.61,1.43.94,2.92.7,4.42-.46,2.88-3.25,4.86-6.13,3.87Z" style="fill:#f49619;"/><path d="M265.77,161.56c.42,1.86-.42,4.1-2.32,4.83-2.75,1.07-5.84-.8-6.27-3.66-.24-1.58.05-3.02.67-4.54,2.38.62,4.64.97,7.1,1.03.36.81.62,1.48.82,2.34Z" style="fill:#f49619;"/></svg>