<?xml version="1.0" encoding="UTF-8"?><svg id="Capa_2" xmlns="http://www.w3.org/2000/svg" viewBox="0 0 805.02 196.1"><defs><style>.cls-1{fill:#fee4bf;}.cls-2{fill:#ac232d;}</style></defs><path class="cls-2" d="M262.07,85.59l13.67,14.82c7.63,7.92,8.35,14.68,5.9,28.64-2.73,14.97-12.09,22.31-30.22,22.31s-25.19-7.34-22.45-22.31l1.87-11.37c.72-3.17,2.73-5.04,5.9-5.04h8.2c3.17,0,4.75,1.87,4.17,5.04l-2.01,11.37c-.86,4.89.72,8.2,6.62,8.2s8.92-3.31,9.79-8.2c1.44-8.06,1.01-12.09-4.17-17.7l-13.67-14.68c-7.63-7.92-8.35-14.68-6.04-28.64,2.73-14.97,12.23-22.31,30.37-22.31s25.04,7.34,22.45,22.31l-2.02,11.37c-.58,3.17-2.73,4.89-5.9,4.89h-8.2c-3.17,0-4.61-1.73-4.17-4.89l2.02-11.37c1.01-4.89-.86-8.2-6.76-8.2s-8.63,3.31-9.5,8.2c-1.44,8.06-1.01,12.09,4.17,17.56Z"/><path class="cls-2" d="M338.92,51.33c.58-3.17,2.73-4.89,5.9-4.89h7.2c3.17,0,4.61,1.73,4.03,4.89l-16.55,94.27c-.58,3.17-2.59,5.04-5.76,5.04h-9.07c-3.02,0-4.03-1.58-4.32-3.74l-5.18-38.71-2.16-23.75-1.3.14-2.45,24.47-6.48,36.56c-.58,3.17-2.59,5.04-5.76,5.04h-7.2c-3.17,0-4.75-1.87-4.17-5.04l16.55-94.27c.58-3.17,2.73-4.89,5.9-4.89h8.92c3.02,0,4.03,1.58,4.46,3.74l5.04,38.71,2.16,23.75,1.29-.14,2.45-24.47,6.48-36.7Z"/><path class="cls-2" d="M404.83,46.44c3.17,0,4.75,1.73,4.17,4.89l-.72,4.17c-.58,3.17-2.73,5.04-5.9,5.04h-21.88l-5.47,30.94h16.41c3.17,0,4.75,1.73,4.17,4.89l-.72,4.17c-.72,3.17-2.88,5.04-6.04,5.04h-16.26l-5.47,30.94h21.88c3.17,0,4.61,1.73,4.03,4.89l-.72,4.17c-.58,3.17-2.59,5.04-5.76,5.04h-34.97c-3.17,0-4.75-1.87-4.17-5.04l16.55-94.27c.58-3.17,2.73-4.89,5.9-4.89h34.97Z"/><path class="cls-2" d="M431.88,146.18l.72-16.12h-18.28l-4.89,16.12c-.86,3.31-3.17,4.46-5.61,4.46h-8.06c-3.6,0-5.04-2.59-3.89-6.04l30.8-93.4c1.01-3.45,3.17-4.75,6.04-4.75h18.71c2.88,0,4.32,1.3,4.17,4.75l-2.16,93.4c0,3.6-2.16,6.04-5.76,6.04h-7.48c-2.45,0-4.46-1.15-4.32-4.46ZM418.64,115.96h14.68l1.01-22.16,2.3-34.83h-1.15l-9.93,34.83-6.91,22.16Z"/><path class="cls-2" d="M481.1,89.47h1.3l24.32-40.15c1.29-1.87,3.02-2.88,5.18-2.88h9.35c5.04,0,4.61,4.75,3.31,6.91l-28.64,45.05,12.09,45.33c.58,2.16-.58,6.91-5.61,6.91h-8.06c-2.3,0-3.89-1.01-4.32-2.88l-10.65-41.59h-1.15l-7.05,39.43c-.58,3.17-2.59,5.04-5.76,5.04h-8.2c-3.17,0-4.75-1.87-4.17-5.04l16.55-94.27c.58-3.17,2.74-4.89,5.9-4.89h8.2c3.17,0,4.75,1.73,4.17,4.89l-6.76,38.14Z"/><path class="cls-2" d="M569.18,46.44c3.17,0,4.75,1.73,4.17,4.89l-.72,4.17c-.58,3.17-2.73,5.04-5.9,5.04h-21.88l-5.47,30.94h16.41c3.17,0,4.75,1.73,4.17,4.89l-.72,4.17c-.72,3.17-2.88,5.04-6.04,5.04h-16.26l-5.47,30.94h21.88c3.17,0,4.61,1.73,4.03,4.89l-.72,4.17c-.58,3.17-2.59,5.04-5.76,5.04h-34.97c-3.17,0-4.75-1.87-4.17-5.04l16.55-94.27c.58-3.17,2.73-4.89,5.9-4.89h34.97Z"/><path class="cls-2" d="M608.33,105.88l7.63,37.71c.43,2.59-.86,7.05-5.61,7.05h-7.63c-2.59,0-4.03-1.15-4.46-3.31l-7.2-38.57h-6.04l-6.48,36.84c-.58,3.17-2.59,5.04-5.76,5.04h-8.2c-3.17,0-4.75-1.87-4.17-5.04l16.55-94.27c.58-3.17,2.74-4.89,5.9-4.89h20.44c18.57,0,25.62,7.48,22.88,22.88l-2.88,16.41c-1.73,10.22-6.33,16.98-14.97,20.15ZM594.8,94.66c6.33,0,9.35-3.6,10.22-8.92l3.02-16.41c.86-5.18-.86-8.78-7.34-8.78h-7.2l-5.9,34.11h7.2Z"/><path class="cls-2" d="M655.67,85.59l13.67,14.82c7.63,7.92,8.35,14.68,5.9,28.64-2.73,14.97-12.09,22.31-30.22,22.31s-25.19-7.34-22.45-22.31l1.87-11.37c.72-3.17,2.73-5.04,5.9-5.04h8.2c3.17,0,4.75,1.87,4.17,5.04l-2.02,11.37c-.86,4.89.72,8.2,6.62,8.2s8.92-3.31,9.79-8.2c1.44-8.06,1.01-12.09-4.17-17.7l-13.67-14.68c-7.63-7.92-8.35-14.68-6.04-28.64,2.73-14.97,12.23-22.31,30.37-22.31s25.04,7.34,22.45,22.31l-2.01,11.37c-.58,3.17-2.73,4.89-5.9,4.89h-8.2c-3.17,0-4.61-1.73-4.17-4.89l2.01-11.37c1.01-4.89-.86-8.2-6.76-8.2s-8.63,3.31-9.5,8.2c-1.44,8.06-1.01,12.09,4.17,17.56Z"/><path class="cls-1" d="M694.91,151.36c-3.17,0-4.75-1.87-4.17-5.04l16.55-94.27c.58-3.17,2.73-4.89,5.9-4.89h19.29c18.71,0,25.62,7.48,23.03,22.88l-1.44,7.48c-1.87,10.79-7.05,17.85-16.69,20.87l-.14,1.3c8.49,3.17,11.23,10.22,9.36,20.87l-1.3,7.77c-2.88,15.54-12.38,23.03-31.09,23.03h-19.29ZM716.64,137.25c6.33,0,9.35-3.6,10.36-8.92l2.3-13.38c1.01-5.33-.86-8.92-7.2-8.92h-6.19l-5.47,31.23h6.19ZM724.56,91.92c6.48,0,9.5-3.45,10.36-8.78l2.3-13.1c1.01-5.18-.86-8.78-7.2-8.78h-6.19l-5.33,30.66h6.04Z"/><path class="cls-1" d="M785.29,146.9l.72-16.12h-18.28l-4.89,16.12c-.86,3.31-3.17,4.46-5.61,4.46h-8.06c-3.6,0-5.04-2.59-3.89-6.04l30.8-93.4c1.01-3.45,3.17-4.75,6.04-4.75h18.71c2.88,0,4.32,1.3,4.17,4.75l-2.16,93.4c0,3.6-2.16,6.04-5.76,6.04h-7.48c-2.45,0-4.46-1.15-4.32-4.46ZM772.05,116.67h14.68l1.01-22.16,2.3-34.83h-1.15l-9.93,34.83-6.91,22.16Z"/><path class="cls-1" d="M47.47,68.75c1.01-5.33-.29-8.92-6.62-8.92s-8.92,3.6-9.79,8.92l-2.16,12.38c-.58,3.17-2.73,5.04-5.9,5.04h-7.34c-3.17,0-4.61-1.87-4.03-5.04l2.16-12.38c2.59-14.97,11.23-22.31,29.36-22.31s24.32,7.34,21.59,22.31l-1.15,6.62c-1.3,7.2-3.17,13.96-8.92,20.87l-32.38,39.58h25.76c3.17,0,4.61,1.73,4.03,4.89l-1.01,5.61c-.58,3.17-2.59,5.04-5.76,5.04H4.29c-3.17,0-4.75-1.87-4.17-5.04l1.15-6.62c.29-2.02.58-2.88,2.16-4.75l37.13-46.34c3.02-3.74,4.61-6.91,5.47-11.66l1.44-8.2Z"/><path class="cls-1" d="M94.53,115.96h7.05c3.17,0,4.75,1.73,4.17,4.89l-1.01,5.76c-.58,3.17-2.73,4.89-5.9,4.89h-7.05l-2.59,14.82c-.58,3.17-2.59,5.04-5.76,5.04h-7.2c-3.17,0-4.75-1.87-4.17-5.04l2.59-14.82h-24.47c-3.17,0-4.61-1.73-4.03-4.89l1.01-6.48c.43-1.58.86-3.17,1.87-5.18l29.65-64.33c1.01-2.16,2.88-3.45,5.47-3.45h8.35c4.75,0,4.61,4.32,3.31,6.91l-29.5,61.89h11.08l3.6-19.86c.58-3.17,2.59-4.89,5.76-4.89h7.2c3.17,0,4.75,1.73,4.17,4.89l-3.6,19.86Z"/><path class="cls-2" d="M182.51,147.91c-1.01,2.16-2.73,3.45-5.33,3.45h-8.06c-4.89,0-4.75-4.32-3.45-7.05l39.43-81.46h-28.06c-3.17,0-4.61-1.73-4.17-4.89l1.01-5.9c.58-3.17,2.73-4.89,5.9-4.89h41.02c3.17,0,4.75,1.73,4.17,4.89l-1.15,6.48c-.29,1.73-.86,3.31-1.73,5.18l-39.58,84.19Z"/><path class="cls-2" d="M162.37,4.72C163.66,1.64,166.23,0,169.17,0h6.25c5.88,0,5.88,5.54,4.41,9.44l-71.86,181.94c-1.29,3.08-3.86,4.72-6.8,4.72h-6.25c-5.7,0-5.88-5.54-4.23-9.44L162.37,4.72Z"/></svg>